<svg width="16" height="16" viewBox="0 0 16 16" fill="none" xmlns="http://www.w3.org/2000/svg">
<path d="M8 8.93385L4.73334 12.2005C4.61111 12.3227 4.45556 12.3839 4.26667 12.3839C4.07778 12.3839 3.92222 12.3227 3.8 12.2005C3.67778 12.0783 3.61667 11.9227 3.61667 11.7339C3.61667 11.545 3.67778 11.3894 3.8 11.2672L7.06667 8.00052L3.8 4.73385C3.67778 4.61163 3.61667 4.45608 3.61667 4.26719C3.61667 4.0783 3.67778 3.92274 3.8 3.80052C3.92222 3.6783 4.07778 3.61719 4.26667 3.61719C4.45556 3.61719 4.61111 3.6783 4.73334 3.80052L8 7.06719L11.2667 3.80052C11.3889 3.6783 11.5444 3.61719 11.7333 3.61719C11.9222 3.61719 12.0778 3.6783 12.2 3.80052C12.3222 3.92274 12.3833 4.0783 12.3833 4.26719C12.3833 4.45608 12.3222 4.61163 12.2 4.73385L8.93334 8.00052L12.2 11.2672C12.3222 11.3894 12.3833 11.545 12.3833 11.7339C12.3833 11.9227 12.3222 12.0783 12.2 12.2005C12.0778 12.3227 11.9222 12.3839 11.7333 12.3839C11.5444 12.3839 11.3889 12.3227 11.2667 12.2005L8 8.93385Z" fill="#949494"/>
</svg>
